<svg width="26" height="27" viewBox="0 0 26 27" fill="none" xmlns="http://www.w3.org/2000/svg">
<path d="M5.39969 4.3795H25L22.3333 13.7128H6.83561M23.6667 19.0462H7.66667L5 1.71283H1M9 24.3795C9 25.1159 8.40304 25.7128 7.66667 25.7128C6.93029 25.7128 6.33333 25.1159 6.33333 24.3795C6.33333 23.6431 6.93029 23.0462 7.66667 23.0462C8.40304 23.0462 9 23.6431 9 24.3795ZM23.6667 24.3795C23.6667 25.1159 23.0697 25.7128 22.3333 25.7128C21.5969 25.7128 21 25.1159 21 24.3795C21 23.6431 21.5969 23.0462 22.3333 23.0462C23.0697 23.0462 23.6667 23.6431 23.6667 24.3795Z" stroke="black" stroke-width="2" stroke-linecap="round" stroke-linejoin="round"/>
</svg>
